<svg xmlns="http://www.w3.org/2000/svg" width="18.068" height="10.755" viewBox="0 0 18.068 10.755"><defs>
</defs><path class="a" d="M168.284,139.242a.284.284,0,0,0,.284-.284v-.995a.284.284,0,1,0-.567,0v.995A.284.284,0,0,0,168.284,139.242Z" transform="translate(-162.531 -137.093)"/><path class="a" d="M330.284,140.856a.284.284,0,0,0,.284-.284V139.4a.284.284,0,0,0-.567,0v1.175A.284.284,0,0,0,330.284,140.856Z" transform="translate(-317.968 -138.469)"/><path class="a" d="M222.284,143.1a.284.284,0,0,0,.284-.284V141.4a.284.284,0,0,0-.567,0v1.418A.284.284,0,0,0,222.284,143.1Z" transform="translate(-214.344 -140.388)"/><path class="a" d="M276.284,125.342a.284.284,0,0,0,.284-.284v-1.582a.284.284,0,1,0-.567,0v1.582A.284.284,0,0,0,276.284,125.342Z" transform="translate(-266.156 -123.193)"/><path class="a" d="M134.244,380.352a.517.517,0,0,0,.488-.352h-.975A.517.517,0,0,0,134.244,380.352Z" transform="translate(-129.674 -369.597)"/><path class="a" d="M354.657,380.352a.517.517,0,0,0,.488-.352h-.975A.517.517,0,0,0,354.657,380.352Z" transform="translate(-341.158 -369.597)"/><path class="a" d="M63.476,243.222a1.427,1.427,0,0,0,1.336.923H75.369a1.427,1.427,0,0,0,1.336-.923L77.939,239h-15.7Z" transform="translate(-61.056 -234.309)"/><path class="a" d="M50.865,214H33.2a.2.2,0,0,0-.2.2v.25H51.068v-.25a.2.2,0,0,0-.2-.2Z" transform="translate(-33 -210.32)"/></svg>