<svg xmlns="http://www.w3.org/2000/svg" width="14.913" height="9.478" viewBox="0 0 14.913 9.478"><defs>
</defs><path class="a" d="M43.888,90.855A1.413,1.413,0,0,1,45.3,89.443h3.169a1.411,1.411,0,0,1,1.179.636,1.411,1.411,0,0,1,1.179-.636h3.169a1.413,1.413,0,0,1,1.412,1.412v.065h.353V89.543a1.551,1.551,0,0,0-1.549-1.549H45.084a1.551,1.551,0,0,0-1.549,1.549V90.92h.353v-.065Z" transform="translate(-42.191 -87.994)"/><path class="a" d="M14.32,204.076H.593a.594.594,0,0,0-.593.593v3.444a.594.594,0,0,0,.593.593H.84l-.292.824a.33.33,0,1,0,.621.22l.37-1.044H13.373l.37,1.044a.33.33,0,1,0,.621-.22l-.292-.824h.247a.594.594,0,0,0,.593-.593v-3.444A.594.594,0,0,0,14.32,204.076Z" transform="translate(0 -200.491)"/><path class="a" d="M256.015,156.262a.753.753,0,0,0-.752.752v.065h4.673v-.065a.753.753,0,0,0-.752-.752Z" transform="translate(-247.38 -154.154)"/><path class="a" d="M77.077,156.262a.753.753,0,0,0-.752.752v.065H81v-.065a.753.753,0,0,0-.752-.752Z" transform="translate(-73.968 -154.154)"/></svg>