<svg xmlns="http://www.w3.org/2000/svg" width="38" height="38" viewBox="0 0 38 38"><defs>
<style>.a,.b{fill:#815c43;}.a{stroke:#815c43;opacity:0.2;}.c{stroke:none;}.d{fill:none;}</style></defs><g transform="translate(9)"><g transform="translate(-9)"><g class="a" transform="translate(0)"><circle class="c" cx="19" cy="19" r="19"/><circle class="d" cx="19" cy="19" r="18.5"/></g><path class="b" d="M-2418.2,16h-1.8a7.1,7.1,0,0,1,2.321-4.859,7.544,7.544,0,0,1,3.02-1.7,4.952,4.952,0,0,1-2.972-4.493A5.049,5.049,0,0,1-2412.5,0a5.049,5.049,0,0,1,5.129,4.952,4.952,4.952,0,0,1-2.979,4.5,7.542,7.542,0,0,1,3.006,1.692A7.1,7.1,0,0,1-2405.025,16h-1.8a5.641,5.641,0,0,0-5.692-5.127A5.64,5.64,0,0,0-2418.2,16h0Zm2.338-11.048A3.312,3.312,0,0,0-2412.5,8.2a3.311,3.311,0,0,0,3.364-3.248,3.311,3.311,0,0,0-3.364-3.247A3.311,3.311,0,0,0-2415.866,4.952Z" transform="translate(2432 11)"/></g></g></svg>